<svg width="213" height="335" viewBox="0 0 213 335" fill="none" xmlns="http://www.w3.org/2000/svg">
<path fill-rule="evenodd" clip-rule="evenodd" d="M0 83C0 37.1604 37.1604 0 83 0H130C175.84 0 213 37.1604 213 83V108H114.192L120.116 72H119.921C126.594 67.6228 131 60.076 131 51.5C131 37.969 120.031 27 106.5 27C92.969 27 82 37.969 82 51.5C82 60.5048 86.858 68.3749 94.0961 72.6326L99.4684 108H0V83ZM101.139 119H0V252C0 297.84 37.1604 335 83 335H130C175.84 335 213 297.84 213 252V119H112.382L106.536 154.527L101.139 119ZM70.9345 213.106L123.65 217.902L91.8764 224.241C81.314 226.349 80.3934 241.095 90.6116 244.5L91.4378 244.775C91.8317 244.906 92.2372 244.999 92.6489 245.053L111.171 247.478L90.7546 254.281C84.7486 256.282 84.8561 264.815 90.9106 266.664L121.799 276.099L106.388 288.685C104.877 289.919 104 291.768 104 293.719V320C104 322.485 106.015 324.5 108.5 324.5C110.985 324.5 113 322.485 113 320V294.905L129.667 281.293C134.311 277.501 132.848 270.063 127.114 268.312L101.029 260.344L120.209 253.953C127.763 251.436 126.706 240.435 118.811 239.401L94.0551 236.161L93.4567 235.961C92.9881 235.805 92.7721 235.579 92.6494 235.383C92.5039 235.15 92.4103 234.821 92.4338 234.445C92.4573 234.068 92.5911 233.753 92.7644 233.541C92.9105 233.362 93.153 233.164 93.6374 233.067L149.109 221.999C155.335 220.757 154.853 211.703 148.532 211.128L87.1777 205.546L126.343 196.406C132.429 194.986 133.2 186.635 127.478 184.124L113 177.77V165C113 162.515 110.985 160.5 108.5 160.5C106.015 160.5 104 162.515 104 165V179.403C104 181.983 105.526 184.318 107.888 185.355L116.986 189.348L70.0462 200.302C62.8592 201.98 63.5846 212.437 70.9345 213.106Z" fill="#283618"/>
</svg>
