<svg width="402" height="402" viewBox="0 0 402 402" fill="none" xmlns="http://www.w3.org/2000/svg">
<g id="MarkingMenu">
<circle id="Swatch" cx="201" cy="201" r="42.5" fill="#864242" stroke="black" stroke-width="3"/>
<g id="BrightenRegion">
<path id="Sector" d="M401 201C401 256.228 378.614 306.229 342.421 342.421L236.355 236.355C245.404 227.307 251 214.807 251 201C251 187.193 245.404 174.693 236.355 165.645L342.421 59.5786C378.614 95.7715 401 145.772 401 201Z" fill="#FFFF00" stroke="black" stroke-width="2" stroke-miterlimit="10"/>
<path id="Brighten" d="M283.193 206V191.455H288.278C289.291 191.455 290.127 191.63 290.785 191.98C291.443 192.326 291.933 192.792 292.255 193.379C292.577 193.962 292.738 194.608 292.738 195.318C292.738 195.943 292.627 196.459 292.405 196.866C292.187 197.274 291.898 197.596 291.538 197.832C291.183 198.069 290.797 198.244 290.38 198.358V198.5C290.826 198.528 291.273 198.685 291.723 198.969C292.173 199.253 292.549 199.66 292.852 200.19C293.155 200.721 293.307 201.369 293.307 202.136C293.307 202.866 293.141 203.521 292.809 204.104C292.478 204.686 291.955 205.148 291.24 205.489C290.525 205.83 289.594 206 288.449 206H283.193ZM284.954 204.438H288.449C289.599 204.438 290.416 204.215 290.899 203.77C291.387 203.32 291.63 202.776 291.63 202.136C291.63 201.644 291.505 201.189 291.254 200.773C291.003 200.351 290.646 200.015 290.182 199.764C289.718 199.509 289.168 199.381 288.534 199.381H284.954V204.438ZM284.954 197.847H288.221C288.752 197.847 289.23 197.742 289.656 197.534C290.087 197.326 290.428 197.032 290.679 196.653C290.934 196.275 291.062 195.83 291.062 195.318C291.062 194.679 290.84 194.137 290.395 193.692C289.95 193.242 289.244 193.017 288.278 193.017H284.954V197.847ZM295.973 206V195.091H297.593V196.739H297.706C297.905 196.199 298.265 195.761 298.786 195.425C299.307 195.089 299.894 194.92 300.547 194.92C300.67 194.92 300.824 194.923 301.009 194.928C301.194 194.932 301.333 194.939 301.428 194.949V196.653C301.371 196.639 301.241 196.618 301.037 196.589C300.839 196.556 300.628 196.54 300.405 196.54C299.875 196.54 299.402 196.651 298.985 196.874C298.573 197.091 298.246 197.394 298.005 197.783C297.768 198.166 297.65 198.604 297.65 199.097V206H295.973ZM303.415 206V195.091H305.091V206H303.415ZM304.267 193.273C303.94 193.273 303.659 193.161 303.422 192.939C303.19 192.716 303.074 192.449 303.074 192.136C303.074 191.824 303.19 191.556 303.422 191.334C303.659 191.111 303.94 191 304.267 191C304.594 191 304.873 191.111 305.105 191.334C305.342 191.556 305.46 191.824 305.46 192.136C305.46 192.449 305.342 192.716 305.105 192.939C304.873 193.161 304.594 193.273 304.267 193.273ZM312.564 210.318C311.755 210.318 311.059 210.214 310.476 210.006C309.894 209.802 309.409 209.532 309.02 209.196C308.637 208.865 308.331 208.509 308.104 208.131L309.439 207.193C309.591 207.392 309.783 207.619 310.015 207.875C310.247 208.135 310.564 208.36 310.966 208.55C311.374 208.744 311.906 208.841 312.564 208.841C313.445 208.841 314.172 208.628 314.745 208.202C315.318 207.776 315.604 207.108 315.604 206.199V203.983H315.462C315.339 204.182 315.164 204.428 314.937 204.722C314.714 205.01 314.392 205.268 313.971 205.496C313.554 205.718 312.991 205.83 312.28 205.83C311.4 205.83 310.609 205.621 309.908 205.205C309.212 204.788 308.661 204.182 308.253 203.386C307.851 202.591 307.65 201.625 307.65 200.489C307.65 199.371 307.846 198.398 308.239 197.57C308.632 196.736 309.179 196.092 309.88 195.638C310.58 195.179 311.39 194.949 312.309 194.949C313.019 194.949 313.582 195.067 313.999 195.304C314.42 195.536 314.742 195.801 314.965 196.099C315.192 196.393 315.367 196.634 315.491 196.824H315.661V195.091H317.28V206.312C317.28 207.25 317.067 208.012 316.641 208.599C316.22 209.191 315.652 209.625 314.937 209.899C314.226 210.179 313.436 210.318 312.564 210.318ZM312.508 204.324C313.18 204.324 313.748 204.17 314.212 203.862C314.676 203.554 315.029 203.112 315.27 202.534C315.512 201.956 315.633 201.265 315.633 200.46C315.633 199.674 315.514 198.981 315.277 198.379C315.041 197.778 314.69 197.307 314.226 196.966C313.762 196.625 313.189 196.455 312.508 196.455C311.797 196.455 311.205 196.634 310.732 196.994C310.263 197.354 309.911 197.837 309.674 198.443C309.442 199.049 309.326 199.722 309.326 200.46C309.326 201.218 309.444 201.888 309.681 202.47C309.922 203.048 310.277 203.502 310.746 203.834C311.22 204.161 311.807 204.324 312.508 204.324ZM322.025 199.438V206H320.348V191.455H322.025V196.795H322.167C322.422 196.232 322.806 195.785 323.317 195.453C323.833 195.117 324.52 194.949 325.377 194.949C326.12 194.949 326.771 195.098 327.33 195.396C327.889 195.69 328.322 196.142 328.63 196.753C328.942 197.359 329.098 198.131 329.098 199.068V206H327.422V199.182C327.422 198.315 327.197 197.645 326.748 197.172C326.303 196.694 325.685 196.455 324.894 196.455C324.345 196.455 323.852 196.571 323.417 196.803C322.986 197.035 322.645 197.373 322.394 197.818C322.148 198.263 322.025 198.803 322.025 199.438ZM336.909 195.091V196.511H331.256V195.091H336.909ZM332.904 192.477H334.58V202.875C334.58 203.348 334.648 203.704 334.786 203.94C334.928 204.172 335.108 204.329 335.325 204.409C335.548 204.485 335.782 204.523 336.029 204.523C336.213 204.523 336.365 204.513 336.483 204.494C336.601 204.471 336.696 204.452 336.767 204.438L337.108 205.943C336.994 205.986 336.836 206.028 336.632 206.071C336.429 206.118 336.171 206.142 335.858 206.142C335.385 206.142 334.921 206.04 334.466 205.837C334.016 205.633 333.642 205.323 333.344 204.906C333.05 204.49 332.904 203.964 332.904 203.33V192.477ZM343.887 206.227C342.836 206.227 341.929 205.995 341.167 205.531C340.409 205.062 339.825 204.409 339.413 203.571C339.006 202.728 338.802 201.748 338.802 200.631C338.802 199.513 339.006 198.528 339.413 197.676C339.825 196.819 340.398 196.152 341.132 195.673C341.87 195.19 342.732 194.949 343.717 194.949C344.285 194.949 344.846 195.044 345.4 195.233C345.954 195.422 346.458 195.73 346.913 196.156C347.367 196.578 347.73 197.136 347.999 197.832C348.269 198.528 348.404 199.385 348.404 200.403V201.114H339.995V199.665H346.7C346.7 199.049 346.577 198.5 346.33 198.017C346.089 197.534 345.743 197.153 345.293 196.874C344.848 196.594 344.323 196.455 343.717 196.455C343.049 196.455 342.471 196.62 341.984 196.952C341.501 197.278 341.129 197.705 340.869 198.23C340.608 198.756 340.478 199.319 340.478 199.92V200.886C340.478 201.71 340.62 202.409 340.904 202.982C341.193 203.55 341.593 203.983 342.105 204.281C342.616 204.575 343.21 204.722 343.887 204.722C344.328 204.722 344.725 204.66 345.08 204.537C345.44 204.409 345.75 204.22 346.011 203.969C346.271 203.713 346.472 203.396 346.614 203.017L348.234 203.472C348.063 204.021 347.777 204.504 347.374 204.92C346.972 205.332 346.475 205.654 345.883 205.886C345.291 206.114 344.626 206.227 343.887 206.227ZM352.63 199.438V206H350.954V195.091H352.573V196.795H352.715C352.971 196.241 353.359 195.796 353.88 195.46C354.401 195.119 355.073 194.949 355.897 194.949C356.636 194.949 357.282 195.1 357.836 195.403C358.39 195.702 358.821 196.156 359.129 196.767C359.436 197.373 359.59 198.14 359.59 199.068V206H357.914V199.182C357.914 198.325 357.692 197.657 357.247 197.179C356.801 196.696 356.191 196.455 355.414 196.455C354.879 196.455 354.401 196.571 353.98 196.803C353.563 197.035 353.234 197.373 352.992 197.818C352.751 198.263 352.63 198.803 352.63 199.438Z" fill="black"/>
</g>
<g id="DarkenRegion">
<path id="Sector_2" d="M1 201C1 145.772 23.3858 95.7715 59.5786 59.5786L165.645 165.645C156.596 174.693 151 187.193 151 201C151 214.807 156.596 227.307 165.645 236.355L59.5786 342.421C23.3858 306.229 1 256.228 1 201Z" fill="#FFA500" stroke="black" stroke-width="2" stroke-miterlimit="10"/>
<path id="Darken" d="M57.336 206H52.8474V191.455H57.5349C58.9458 191.455 60.1532 191.746 61.157 192.328C62.1608 192.906 62.9302 193.737 63.4653 194.821C64.0003 195.901 64.2678 197.193 64.2678 198.699C64.2678 200.214 63.9979 201.518 63.4582 202.612C62.9184 203.701 62.1324 204.539 61.1002 205.126C60.068 205.709 58.8133 206 57.336 206ZM54.6087 204.438H57.2224C58.425 204.438 59.4217 204.205 60.2124 203.741C61.0031 203.277 61.5926 202.617 61.9809 201.76C62.3691 200.903 62.5633 199.883 62.5633 198.699C62.5633 197.525 62.3715 196.514 61.988 195.666C61.6045 194.814 61.0315 194.161 60.2692 193.706C59.5069 193.247 58.5576 193.017 57.4212 193.017H54.6087V204.438ZM70.2053 206.256C69.514 206.256 68.8867 206.125 68.3232 205.865C67.7598 205.6 67.3123 205.219 66.9809 204.722C66.6494 204.22 66.4837 203.614 66.4837 202.903C66.4837 202.278 66.6068 201.772 66.853 201.384C67.0993 200.991 67.4283 200.683 67.8403 200.46C68.2522 200.238 68.7067 200.072 69.2039 199.963C69.7058 199.849 70.2101 199.759 70.7167 199.693C71.3796 199.608 71.917 199.544 72.3289 199.501C72.7456 199.454 73.0486 199.376 73.238 199.267C73.4321 199.158 73.5292 198.969 73.5292 198.699V198.642C73.5292 197.941 73.3374 197.397 72.9539 197.009C72.5751 196.62 71.9998 196.426 71.228 196.426C70.4279 196.426 69.8005 196.601 69.3459 196.952C68.8914 197.302 68.5718 197.676 68.3871 198.074L66.7962 197.506C67.0803 196.843 67.4591 196.327 67.9326 195.957C68.4108 195.583 68.9316 195.323 69.4951 195.176C70.0633 195.025 70.622 194.949 71.1712 194.949C71.5216 194.949 71.9241 194.991 72.3786 195.077C72.8379 195.157 73.2806 195.325 73.7067 195.581C74.1376 195.837 74.4951 196.223 74.7792 196.739C75.0633 197.255 75.2053 197.946 75.2053 198.812V206H73.5292V204.523H73.444C73.3303 204.759 73.1409 205.013 72.8758 205.283C72.6106 205.553 72.2579 205.782 71.8175 205.972C71.3772 206.161 70.8398 206.256 70.2053 206.256ZM70.461 204.75C71.1239 204.75 71.6826 204.62 72.1371 204.359C72.5964 204.099 72.9421 203.763 73.1741 203.351C73.4108 202.939 73.5292 202.506 73.5292 202.051V200.517C73.4582 200.602 73.3019 200.68 73.0604 200.751C72.8237 200.818 72.5491 200.877 72.2366 200.929C71.9288 200.976 71.6281 201.019 71.3346 201.057C71.0458 201.09 70.8114 201.118 70.6315 201.142C70.1958 201.199 69.7887 201.291 69.4099 201.419C69.0358 201.542 68.7328 201.729 68.5008 201.98C68.2735 202.226 68.1599 202.562 68.1599 202.989C68.1599 203.571 68.3753 204.011 68.8062 204.31C69.2418 204.603 69.7934 204.75 70.461 204.75ZM78.2646 206V195.091H79.8839V196.739H79.9976C80.1964 196.199 80.5563 195.761 81.0771 195.425C81.598 195.089 82.1851 194.92 82.8385 194.92C82.9616 194.92 83.1155 194.923 83.3001 194.928C83.4848 194.932 83.6245 194.939 83.7192 194.949V196.653C83.6623 196.639 83.5321 196.618 83.3285 196.589C83.1297 196.556 82.919 196.54 82.6964 196.54C82.1661 196.54 81.6927 196.651 81.276 196.874C80.8641 197.091 80.5373 197.394 80.2959 197.783C80.0591 198.166 79.9408 198.604 79.9408 199.097V206H78.2646ZM87.2685 202.023L87.2401 199.949H87.581L92.3538 195.091H94.4276L89.3424 200.233H89.2003L87.2685 202.023ZM85.706 206V191.455H87.3822V206H85.706ZM92.6378 206L88.3765 200.602L89.5697 199.438L94.7685 206H92.6378ZM100.71 206.227C99.6584 206.227 98.7517 205.995 97.9894 205.531C97.2318 205.062 96.6471 204.409 96.2351 203.571C95.8279 202.728 95.6244 201.748 95.6244 200.631C95.6244 199.513 95.8279 198.528 96.2351 197.676C96.6471 196.819 97.22 196.152 97.9539 195.673C98.6925 195.19 99.5543 194.949 100.539 194.949C101.107 194.949 101.668 195.044 102.222 195.233C102.776 195.422 103.281 195.73 103.735 196.156C104.19 196.578 104.552 197.136 104.822 197.832C105.092 198.528 105.227 199.385 105.227 200.403V201.114H96.8175V199.665H103.522C103.522 199.049 103.399 198.5 103.153 198.017C102.911 197.534 102.566 197.153 102.116 196.874C101.671 196.594 101.145 196.455 100.539 196.455C99.8715 196.455 99.2939 196.62 98.8062 196.952C98.3232 197.278 97.9515 197.705 97.6911 198.23C97.4307 198.756 97.3005 199.319 97.3005 199.92V200.886C97.3005 201.71 97.4425 202.409 97.7266 202.982C98.0154 203.55 98.4155 203.983 98.9269 204.281C99.4383 204.575 100.032 204.722 100.71 204.722C101.15 204.722 101.548 204.66 101.903 204.537C102.263 204.409 102.573 204.22 102.833 203.969C103.094 203.713 103.295 203.396 103.437 203.017L105.056 203.472C104.886 204.021 104.599 204.504 104.197 204.92C103.794 205.332 103.297 205.654 102.705 205.886C102.113 206.114 101.448 206.227 100.71 206.227ZM109.452 199.438V206H107.776V195.091H109.396V196.795H109.538C109.793 196.241 110.182 195.796 110.702 195.46C111.223 195.119 111.896 194.949 112.72 194.949C113.458 194.949 114.104 195.1 114.658 195.403C115.212 195.702 115.643 196.156 115.951 196.767C116.259 197.373 116.413 198.14 116.413 199.068V206H114.737V199.182C114.737 198.325 114.514 197.657 114.069 197.179C113.624 196.696 113.013 196.455 112.237 196.455C111.702 196.455 111.223 196.571 110.802 196.803C110.385 197.035 110.056 197.373 109.815 197.818C109.573 198.263 109.452 198.803 109.452 199.438Z" fill="black"/>
</g>
<g id="ClearRegion">
<path id="Sector_3" d="M201 401C145.771 401 95.7715 378.614 59.5786 342.421L165.645 236.355C174.693 245.404 187.193 251 201 251C214.807 251 227.307 245.404 236.355 236.355L342.421 342.421C306.228 378.614 256.228 401 201 401Z" fill="#0000FF" stroke="black" stroke-width="2" stroke-miterlimit="10"/>
<path id="Clear" d="M190.569 313.678H188.808C188.704 313.171 188.522 312.726 188.261 312.342C188.006 311.959 187.693 311.637 187.324 311.377C186.959 311.111 186.554 310.913 186.109 310.78C185.664 310.647 185.2 310.581 184.717 310.581C183.836 310.581 183.039 310.804 182.324 311.249C181.613 311.694 181.048 312.35 180.626 313.216C180.21 314.083 180.001 315.145 180.001 316.405C180.001 317.664 180.21 318.727 180.626 319.594C181.048 320.46 181.613 321.116 182.324 321.561C183.039 322.006 183.836 322.229 184.717 322.229C185.2 322.229 185.664 322.163 186.109 322.03C186.554 321.897 186.959 321.701 187.324 321.44C187.693 321.175 188.006 320.851 188.261 320.467C188.522 320.079 188.704 319.634 188.808 319.132H190.569C190.437 319.876 190.195 320.541 189.845 321.128C189.495 321.715 189.059 322.215 188.538 322.627C188.017 323.034 187.433 323.344 186.784 323.557C186.14 323.77 185.451 323.877 184.717 323.877C183.477 323.877 182.373 323.574 181.407 322.967C180.442 322.361 179.682 321.5 179.128 320.382C178.574 319.265 178.297 317.939 178.297 316.405C178.297 314.871 178.574 313.545 179.128 312.428C179.682 311.31 180.442 310.449 181.407 309.842C182.373 309.236 183.477 308.933 184.717 308.933C185.451 308.933 186.14 309.04 186.784 309.253C187.433 309.466 188.017 309.779 188.538 310.19C189.059 310.598 189.495 311.095 189.845 311.682C190.195 312.264 190.437 312.93 190.569 313.678ZM194.865 309.132V323.678H193.188V309.132H194.865ZM202.508 323.905C201.457 323.905 200.55 323.673 199.788 323.209C199.031 322.74 198.446 322.087 198.034 321.249C197.627 320.406 197.423 319.426 197.423 318.308C197.423 317.191 197.627 316.206 198.034 315.354C198.446 314.497 199.019 313.829 199.753 313.351C200.491 312.868 201.353 312.627 202.338 312.627C202.906 312.627 203.467 312.721 204.021 312.911C204.575 313.1 205.079 313.408 205.534 313.834C205.988 314.255 206.351 314.814 206.621 315.51C206.89 316.206 207.025 317.063 207.025 318.081V318.791H198.616V317.342H205.321C205.321 316.727 205.198 316.178 204.952 315.695C204.71 315.212 204.364 314.831 203.915 314.551C203.47 314.272 202.944 314.132 202.338 314.132C201.67 314.132 201.093 314.298 200.605 314.629C200.122 314.956 199.75 315.382 199.49 315.908C199.229 316.433 199.099 316.997 199.099 317.598V318.564C199.099 319.388 199.241 320.086 199.525 320.659C199.814 321.227 200.214 321.661 200.726 321.959C201.237 322.252 201.831 322.399 202.508 322.399C202.949 322.399 203.346 322.338 203.702 322.215C204.061 322.087 204.372 321.897 204.632 321.646C204.892 321.391 205.094 321.074 205.236 320.695L206.855 321.149C206.684 321.699 206.398 322.181 205.996 322.598C205.593 323.01 205.096 323.332 204.504 323.564C203.912 323.791 203.247 323.905 202.508 323.905ZM212.785 323.933C212.094 323.933 211.467 323.803 210.903 323.543C210.34 323.278 209.892 322.896 209.561 322.399C209.229 321.897 209.064 321.291 209.064 320.581C209.064 319.956 209.187 319.449 209.433 319.061C209.679 318.668 210.008 318.36 210.42 318.138C210.832 317.915 211.287 317.75 211.784 317.641C212.286 317.527 212.79 317.437 213.297 317.371C213.96 317.286 214.497 317.222 214.909 317.179C215.326 317.132 215.629 317.054 215.818 316.945C216.012 316.836 216.109 316.646 216.109 316.377V316.32C216.109 315.619 215.917 315.074 215.534 314.686C215.155 314.298 214.58 314.104 213.808 314.104C213.008 314.104 212.381 314.279 211.926 314.629C211.471 314.98 211.152 315.354 210.967 315.752L209.376 315.183C209.66 314.52 210.039 314.004 210.513 313.635C210.991 313.261 211.512 313.001 212.075 312.854C212.643 312.702 213.202 312.627 213.751 312.627C214.102 312.627 214.504 312.669 214.959 312.754C215.418 312.835 215.861 313.003 216.287 313.259C216.718 313.514 217.075 313.9 217.359 314.416C217.643 314.932 217.785 315.624 217.785 316.49V323.678H216.109V322.2H216.024C215.91 322.437 215.721 322.69 215.456 322.96C215.191 323.23 214.838 323.46 214.398 323.649C213.957 323.839 213.42 323.933 212.785 323.933ZM213.041 322.428C213.704 322.428 214.263 322.297 214.717 322.037C215.176 321.777 215.522 321.44 215.754 321.029C215.991 320.617 216.109 320.183 216.109 319.729V318.195C216.038 318.28 215.882 318.358 215.64 318.429C215.404 318.495 215.129 318.555 214.817 318.607C214.509 318.654 214.208 318.697 213.915 318.734C213.626 318.768 213.391 318.796 213.211 318.82C212.776 318.877 212.369 318.969 211.99 319.097C211.616 319.22 211.313 319.407 211.081 319.658C210.854 319.904 210.74 320.24 210.74 320.666C210.74 321.249 210.955 321.689 211.386 321.987C211.822 322.281 212.373 322.428 213.041 322.428ZM220.845 323.678V312.769H222.464V314.416H222.578C222.776 313.877 223.136 313.439 223.657 313.102C224.178 312.766 224.765 312.598 225.419 312.598C225.542 312.598 225.695 312.6 225.88 312.605C226.065 312.61 226.204 312.617 226.299 312.627V314.331C226.242 314.317 226.112 314.296 225.909 314.267C225.71 314.234 225.499 314.217 225.276 314.217C224.746 314.217 224.273 314.329 223.856 314.551C223.444 314.769 223.117 315.072 222.876 315.46C222.639 315.844 222.521 316.282 222.521 316.774V323.678H220.845Z" fill="black"/>
</g>
<g id="EyedropperRegion">
<path id="Sector_4" d="M201 1C256.228 1 306.228 23.3858 342.421 59.5786L236.355 165.645C227.307 156.596 214.807 151 201 151C187.193 151 174.693 156.596 165.645 165.645L59.5786 59.5786C95.7715 23.3858 145.771 1 201 1Z" fill="#008000" stroke="black" stroke-width="2" stroke-miterlimit="10"/>
<path id="Previous" d="M147.761 90.3223V75.7769H156.54V77.3394H149.523V82.2541H156.085V83.8166H149.523V88.7598H156.653V90.3223H147.761ZM160.567 94.4132C160.283 94.4132 160.029 94.3896 159.807 94.3422C159.584 94.2996 159.43 94.257 159.345 94.2144L159.771 92.7371C160.179 92.8413 160.538 92.8791 160.851 92.8507C161.163 92.8223 161.44 92.6826 161.682 92.4317C161.928 92.1855 162.153 91.7854 162.357 91.2314L162.669 90.3791L158.635 79.4132H160.453L163.464 88.1064H163.578L166.589 79.4132H168.408L163.777 91.9132C163.569 92.4767 163.311 92.9431 163.003 93.3124C162.695 93.6864 162.338 93.9634 161.93 94.1433C161.528 94.3233 161.073 94.4132 160.567 94.4132ZM174.803 90.5496C173.752 90.5496 172.845 90.3176 172.083 89.8536C171.326 89.3848 170.741 88.7314 170.329 87.8933C169.922 87.0505 169.718 86.0704 169.718 84.953C169.718 83.8356 169.922 82.8507 170.329 81.9985C170.741 81.1415 171.314 80.4738 172.048 79.9956C172.786 79.5127 173.648 79.2712 174.633 79.2712C175.201 79.2712 175.762 79.3659 176.316 79.5553C176.87 79.7447 177.374 80.0524 177.829 80.4786C178.283 80.9 178.646 81.4587 178.915 82.1547C179.185 82.8507 179.32 83.7077 179.32 84.7257V85.436H170.911V83.9871H177.616C177.616 83.3716 177.493 82.8223 177.246 82.3394C177.005 81.8564 176.659 81.4753 176.21 81.1959C175.764 80.9165 175.239 80.7769 174.633 80.7769C173.965 80.7769 173.388 80.9426 172.9 81.274C172.417 81.6007 172.045 82.0269 171.785 82.5524C171.524 83.078 171.394 83.6415 171.394 84.2428V85.2087C171.394 86.0326 171.536 86.7309 171.82 87.3039C172.109 87.872 172.509 88.3053 173.021 88.6036C173.532 88.8971 174.126 89.0439 174.803 89.0439C175.244 89.0439 175.641 88.9824 175.996 88.8593C176.356 88.7314 176.666 88.542 176.927 88.2911C177.187 88.0354 177.388 87.7182 177.531 87.3394L179.15 87.7939C178.979 88.3432 178.693 88.8261 178.29 89.2428C177.888 89.6547 177.391 89.9767 176.799 90.2087C176.207 90.436 175.542 90.5496 174.803 90.5496ZM185.989 90.5496C185.08 90.5496 184.278 90.32 183.582 89.8607C182.886 89.3967 182.341 88.7433 181.948 87.9005C181.555 87.0529 181.359 86.0515 181.359 84.8962C181.359 83.7504 181.555 82.756 181.948 81.9132C182.341 81.0704 182.888 80.4194 183.589 79.9601C184.29 79.5008 185.099 79.2712 186.018 79.2712C186.728 79.2712 187.289 79.3896 187.701 79.6263C188.118 79.8583 188.435 80.1235 188.653 80.4218C188.875 80.7153 189.048 80.9568 189.171 81.1462H189.313V75.7769H190.989V90.3223H189.37V88.6462H189.171C189.048 88.8451 188.873 89.096 188.646 89.399C188.418 89.6973 188.094 89.9648 187.673 90.2016C187.251 90.4336 186.69 90.5496 185.989 90.5496ZM186.217 89.0439C186.889 89.0439 187.457 88.8687 187.921 88.5183C188.385 88.1632 188.738 87.6732 188.979 87.0482C189.221 86.4184 189.342 85.6916 189.342 84.8678C189.342 84.0534 189.223 83.3408 188.987 82.73C188.75 82.1145 188.399 81.6362 187.935 81.2953C187.471 80.9497 186.898 80.7769 186.217 80.7769C185.506 80.7769 184.915 80.9592 184.441 81.3237C183.972 81.6836 183.62 82.1737 183.383 82.7939C183.151 83.4094 183.035 84.1007 183.035 84.8678C183.035 85.6443 183.153 86.3498 183.39 86.9843C183.631 87.614 183.987 88.1159 184.455 88.4899C184.929 88.8593 185.516 89.0439 186.217 89.0439ZM194.292 90.3223V79.4132H195.911V81.061H196.025C196.224 80.5212 196.584 80.0832 197.104 79.747C197.625 79.4109 198.212 79.2428 198.866 79.2428C198.989 79.2428 199.143 79.2451 199.327 79.2499C199.512 79.2546 199.652 79.2617 199.746 79.2712V80.9757C199.69 80.9615 199.559 80.9402 199.356 80.9118C199.157 80.8787 198.946 80.8621 198.724 80.8621C198.193 80.8621 197.72 80.9734 197.303 81.1959C196.891 81.4137 196.565 81.7167 196.323 82.105C196.086 82.4885 195.968 82.9265 195.968 83.4189V90.3223H194.292ZM205.833 90.5496C204.848 90.5496 203.984 90.3152 203.241 89.8465C202.502 89.3777 201.924 88.7219 201.508 87.8791C201.096 87.0363 200.89 86.0515 200.89 84.9246C200.89 83.7882 201.096 82.7963 201.508 81.9487C201.924 81.1012 202.502 80.4431 203.241 79.9743C203.984 79.5056 204.848 79.2712 205.833 79.2712C206.818 79.2712 207.68 79.5056 208.418 79.9743C209.162 80.4431 209.739 81.1012 210.151 81.9487C210.568 82.7963 210.776 83.7882 210.776 84.9246C210.776 86.0515 210.568 87.0363 210.151 87.8791C209.739 88.7219 209.162 89.3777 208.418 89.8465C207.68 90.3152 206.818 90.5496 205.833 90.5496ZM205.833 89.0439C206.581 89.0439 207.197 88.8522 207.68 88.4686C208.163 88.0851 208.52 87.5808 208.752 86.9558C208.984 86.3308 209.1 85.6538 209.1 84.9246C209.1 84.1954 208.984 83.516 208.752 82.8862C208.52 82.2565 208.163 81.7475 207.68 81.3593C207.197 80.971 206.581 80.7769 205.833 80.7769C205.085 80.7769 204.469 80.971 203.987 81.3593C203.504 81.7475 203.146 82.2565 202.914 82.8862C202.682 83.516 202.566 84.1954 202.566 84.9246C202.566 85.6538 202.682 86.3308 202.914 86.9558C203.146 87.5808 203.504 88.0851 203.987 88.4686C204.469 88.8522 205.085 89.0439 205.833 89.0439ZM213.335 94.4132V79.4132H214.954V81.1462H215.153C215.276 80.9568 215.447 80.7153 215.664 80.4218C215.887 80.1235 216.204 79.8583 216.616 79.6263C217.033 79.3896 217.596 79.2712 218.306 79.2712C219.225 79.2712 220.035 79.5008 220.735 79.9601C221.436 80.4194 221.983 81.0704 222.376 81.9132C222.769 82.756 222.966 83.7504 222.966 84.8962C222.966 86.0515 222.769 87.0529 222.376 87.9005C221.983 88.7433 221.439 89.3967 220.743 89.8607C220.047 90.32 219.244 90.5496 218.335 90.5496C217.634 90.5496 217.073 90.4336 216.652 90.2016C216.23 89.9648 215.906 89.6973 215.679 89.399C215.451 89.096 215.276 88.8451 215.153 88.6462H215.011V94.4132H213.335ZM214.983 84.8678C214.983 85.6916 215.103 86.4184 215.345 87.0482C215.586 87.6732 215.939 88.1632 216.403 88.5183C216.867 88.8687 217.435 89.0439 218.108 89.0439C218.808 89.0439 219.393 88.8593 219.862 88.4899C220.335 88.1159 220.69 87.614 220.927 86.9843C221.169 86.3498 221.289 85.6443 221.289 84.8678C221.289 84.1007 221.171 83.4094 220.934 82.7939C220.702 82.1737 220.35 81.6836 219.876 81.3237C219.407 80.9592 218.818 80.7769 218.108 80.7769C217.426 80.7769 216.853 80.9497 216.389 81.2953C215.925 81.6362 215.574 82.1145 215.338 82.73C215.101 83.3408 214.983 84.0534 214.983 84.8678ZM225.522 94.4132V79.4132H227.142V81.1462H227.341C227.464 80.9568 227.634 80.7153 227.852 80.4218C228.074 80.1235 228.392 79.8583 228.804 79.6263C229.22 79.3896 229.784 79.2712 230.494 79.2712C231.413 79.2712 232.222 79.5008 232.923 79.9601C233.624 80.4194 234.171 81.0704 234.564 81.9132C234.957 82.756 235.153 83.7504 235.153 84.8962C235.153 86.0515 234.957 87.0529 234.564 87.9005C234.171 88.7433 233.626 89.3967 232.93 89.8607C232.234 90.32 231.431 90.5496 230.522 90.5496C229.822 90.5496 229.261 90.4336 228.839 90.2016C228.418 89.9648 228.093 89.6973 227.866 89.399C227.639 89.096 227.464 88.8451 227.341 88.6462H227.199V94.4132H225.522ZM227.17 84.8678C227.17 85.6916 227.291 86.4184 227.532 87.0482C227.774 87.6732 228.127 88.1632 228.591 88.5183C229.055 88.8687 229.623 89.0439 230.295 89.0439C230.996 89.0439 231.581 88.8593 232.049 88.4899C232.523 88.1159 232.878 87.614 233.115 86.9843C233.356 86.3498 233.477 85.6443 233.477 84.8678C233.477 84.1007 233.359 83.4094 233.122 82.7939C232.89 82.1737 232.537 81.6836 232.064 81.3237C231.595 80.9592 231.005 80.7769 230.295 80.7769C229.613 80.7769 229.04 80.9497 228.576 81.2953C228.112 81.6362 227.762 82.1145 227.525 82.73C227.288 83.3408 227.17 84.0534 227.17 84.8678ZM242.284 90.5496C241.233 90.5496 240.326 90.3176 239.564 89.8536C238.806 89.3848 238.221 88.7314 237.809 87.8933C237.402 87.0505 237.199 86.0704 237.199 84.953C237.199 83.8356 237.402 82.8507 237.809 81.9985C238.221 81.1415 238.794 80.4738 239.528 79.9956C240.267 79.5127 241.128 79.2712 242.113 79.2712C242.681 79.2712 243.243 79.3659 243.797 79.5553C244.35 79.7447 244.855 80.0524 245.309 80.4786C245.764 80.9 246.126 81.4587 246.396 82.1547C246.666 82.8507 246.801 83.7077 246.801 84.7257V85.436H238.392V83.9871H245.096C245.096 83.3716 244.973 82.8223 244.727 82.3394C244.485 81.8564 244.14 81.4753 243.69 81.1959C243.245 80.9165 242.719 80.7769 242.113 80.7769C241.446 80.7769 240.868 80.9426 240.38 81.274C239.897 81.6007 239.526 82.0269 239.265 82.5524C239.005 83.078 238.875 83.6415 238.875 84.2428V85.2087C238.875 86.0326 239.017 86.7309 239.301 87.3039C239.59 87.872 239.99 88.3053 240.501 88.6036C241.012 88.8971 241.607 89.0439 242.284 89.0439C242.724 89.0439 243.122 88.9824 243.477 88.8593C243.837 88.7314 244.147 88.542 244.407 88.2911C244.668 88.0354 244.869 87.7182 245.011 87.3394L246.63 87.7939C246.46 88.3432 246.173 88.8261 245.771 89.2428C245.368 89.6547 244.871 89.9767 244.279 90.2087C243.688 90.436 243.022 90.5496 242.284 90.5496ZM249.35 90.3223V79.4132H250.97V81.061H251.083C251.282 80.5212 251.642 80.0832 252.163 79.747C252.684 79.4109 253.271 79.2428 253.924 79.2428C254.047 79.2428 254.201 79.2451 254.386 79.2499C254.571 79.2546 254.71 79.2617 254.805 79.2712V80.9757C254.748 80.9615 254.618 80.9402 254.414 80.9118C254.216 80.8787 254.005 80.8621 253.782 80.8621C253.252 80.8621 252.779 80.9734 252.362 81.1959C251.95 81.4137 251.623 81.7167 251.382 82.105C251.145 82.4885 251.027 82.9265 251.027 83.4189V90.3223H249.35Z" fill="black"/>
</g>
</g>
</svg>
